<svg width="24" height="24" xmlns="http://www.w3.org/2000/svg">
 <style type="text/css">.st0{opacity:0.2;fill:none;stroke:#000000;stroke-width:5.000000e-02;stroke-miterlimit:10;}</style>

 <g>
  <title>background</title>
  <rect fill="none" id="canvas_background" height="402" width="582" y="-1" x="-1"/>
 </g>
 <g>
  <title>Layer 1</title>
  <g id="grid_system"/>
  <g stroke="null" id="_icons">
   <g stroke="null" id="svg_1">
    <path stroke="null" fill="#d6d600" id="svg_2" d="m11.999999,0.718766c-0.697499,0 -1.162498,0.451249 -1.162498,1.128123l0,3.38437c0,0.676874 0.464999,1.128123 1.162498,1.128123s1.162498,-0.451249 1.162498,-1.128123l0,-3.38437c0,-0.676874 -0.464999,-1.128123 -1.162498,-1.128123z"/>
    <path stroke="null" fill="#d6d600" id="svg_3" d="m14.906244,7.14907c0.2325,0.112812 0.348749,0.112812 0.581249,0.112812c0.348749,0 0.813749,-0.225625 1.046248,-0.564062l1.743747,-2.933121c0.348749,-0.564062 0.11625,-1.240936 -0.464999,-1.579373c-0.581249,-0.338437 -1.278748,-0.112812 -1.627497,0.451249l-1.743747,2.933121c-0.2325,0.564062 -0.11625,1.240936 0.464999,1.579373z"/>
    <path stroke="null" fill="#d6d600" id="svg_4" d="m16.99874,9.179692c0.2325,0.338437 0.581249,0.564062 1.046248,0.564062c0.2325,0 0.348749,0 0.581249,-0.112812l3.022495,-1.692185c0.581249,-0.338437 0.697499,-1.015311 0.464999,-1.579373c-0.348749,-0.564062 -1.046248,-0.676874 -1.627497,-0.451249l-3.022495,1.692185c-0.581249,0.338437 -0.697499,1.015311 -0.464999,1.579373z"/>
    <path stroke="null" fill="#d6d600" id="svg_5" d="m22.46248,10.871877l-3.487494,0c0,0 0,0 0,0c-0.697499,0 -1.162498,0.451249 -1.162498,1.128123c0,0.676874 0.464999,1.128123 1.162498,1.128123l3.487494,0c0,0 0,0 0,0c0.697499,0 1.162498,-0.451249 1.162498,-1.128123c0,-0.564062 -0.464999,-1.128123 -1.162498,-1.128123z"/>
    <path stroke="null" fill="#d6d600" id="svg_6" d="m21.648732,16.174057l-3.022495,-1.692185c-0.581249,-0.338437 -1.278748,-0.112812 -1.627497,0.451249c-0.348749,0.564062 -0.11625,1.240936 0.464999,1.579373l3.022495,1.692185c0.2325,0.112812 0.348749,0.112812 0.581249,0.112812c0.348749,0 0.813749,-0.225625 1.046248,-0.564062c0.2325,-0.676874 0.11625,-1.353748 -0.464999,-1.579373z"/>
    <path stroke="null" fill="#d6d600" id="svg_7" d="m16.417491,17.30218c-0.348749,-0.564062 -1.046248,-0.676874 -1.627497,-0.451249c-0.581249,0.338437 -0.697499,1.015311 -0.464999,1.579373l1.743747,2.933121c0.2325,0.338437 0.581249,0.564062 1.046248,0.564062c0.2325,0 0.348749,0 0.581249,-0.112812c0.581249,-0.338437 0.697499,-1.015311 0.464999,-1.579373l-1.743747,-2.933121z"/>
    <path stroke="null" fill="#d6d600" id="svg_8" d="m11.999999,17.640617c-0.581249,0 -1.162498,0.451249 -1.162498,1.128123l0,3.38437c0,0.676874 0.464999,1.128123 1.162498,1.128123c0,0 0,0 0,0c0.581249,0 1.162498,-0.451249 1.162498,-1.128123l0,-3.38437c0,-0.564062 -0.581249,-1.128123 -1.162498,-1.128123z"/>
    <path stroke="null" fill="#d6d600" id="svg_9" d="m9.093754,16.850931c-0.581249,-0.338437 -1.278748,-0.112812 -1.627497,0.451249l-1.743747,2.933121c-0.348749,0.564062 -0.11625,1.240936 0.464999,1.579373c0.2325,0.112812 0.348749,0.112812 0.581249,0.112812c0.348749,0 0.813749,-0.225625 1.046248,-0.564062l1.743747,-2.933121c0.2325,-0.564062 0.11625,-1.240936 -0.464999,-1.579373z"/>
    <path stroke="null" fill="#d6d600" id="svg_10" d="m7.001258,14.820309c-0.348749,-0.564062 -1.046248,-0.676874 -1.627497,-0.451249l-3.022495,1.692185c-0.581249,0.338437 -0.697499,1.015311 -0.464999,1.579373c0.2325,0.338437 0.581249,0.564062 1.046248,0.564062c0.2325,0 0.348749,0 0.581249,-0.112812l3.022495,-1.692185c0.581249,-0.338437 0.697499,-1.015311 0.464999,-1.579373z"/>
    <path stroke="null" fill="#d6d600" id="svg_11" d="m5.025012,13.128124c0.581249,0 1.162498,-0.451249 1.162498,-1.128123c0,-0.676874 -0.464999,-1.128123 -1.162498,-1.128123l-3.487494,0c0,0 0,0 0,0c-0.581249,0 -1.162498,0.451249 -1.162498,1.128123c0,0.676874 0.464999,1.128123 1.162498,1.128123l3.487494,0c0,0 0,0 0,0z"/>
    <path stroke="null" fill="#d6d600" id="svg_12" d="m2.351267,7.825944l3.022495,1.692185c0.2325,0.112812 0.464999,0.225625 0.581249,0.225625c0.348749,0 0.813749,-0.225625 1.046248,-0.564062c0.348749,-0.564062 0.11625,-1.240936 -0.464999,-1.579373l-3.022495,-1.692185c-0.464999,-0.338437 -1.162498,-0.112812 -1.511247,0.338437c-0.348749,0.564062 -0.11625,1.240936 0.348749,1.579373z"/>
   </g>
  </g>
 </g>
</svg>