<svg width="55" height="12.000000000000002" xmlns="http://www.w3.org/2000/svg">

 <g>
  <title>background</title>
  <rect fill="none" id="canvas_background" height="14" width="57" y="-1" x="-1"/>
 </g>
 <g>
  <title>Layer 1</title>
  <path stroke="null" id="svg_1" fill="none" d="m55.081711,25.270415l42.624301,0l0,11.522048l-42.624301,0l0,-11.522048z"/>
  <g id="svg_8"/>
  <path fill="#999999" stroke="null" id="svg_7" d="m53.166666,4.262046l-0.48271,0l0,-0.993112c0,-1.370499 -1.08126,-2.482786 -2.41353,-2.482786s-2.41353,1.112287 -2.41353,2.482786l0,0.993112l-0.4827,0c-0.53339,0 -0.96541,0.444425 -0.96541,0.993122l0,4.965572c0,0.548697 0.43202,0.993112 0.96541,0.993112l5.79247,0c0.53339,0 0.96541,-0.444415 0.96541,-0.993112l0,-4.965572c0,-0.548697 -0.43202,-0.993122 -0.96541,-0.993122zm-2.89624,4.46902c-0.53339,0 -0.96541,-0.444424 -0.96541,-0.993112s0.43202,-0.993122 0.96541,-0.993122s0.96541,0.444425 0.96541,0.993122s-0.43202,0.993112 -0.96541,0.993112zm1.49639,-4.46902l-2.99278,0l0,-0.993112c0,-0.849114 0.67097,-1.539329 1.49639,-1.539329c0.82543,0 1.49639,0.690215 1.49639,1.539329l0,0.993112z"/>
  <path fill="#ff5656" stroke="null" id="svg_10" d="m7.38681,4.262046l-0.48271,0l0,-0.993112c0,-1.370499 -1.08126,-2.482786 -2.41353,-2.482786s-2.41353,1.112287 -2.41353,2.482786l0,0.993112l-0.4827,0c-0.53339,0 -0.96541,0.444425 -0.96541,0.993122l0,4.965572c0,0.548697 0.43202,0.993112 0.96541,0.993112l5.79247,0c0.53339,0 0.96541,-0.444415 0.96541,-0.993112l0,-4.965572c0,-0.548697 -0.43202,-0.993122 -0.96541,-0.993122zm-2.89624,4.46902c-0.53339,0 -0.96541,-0.444424 -0.96541,-0.993112s0.43202,-0.993122 0.96541,-0.993122s0.96541,0.444425 0.96541,0.993122s-0.43202,0.993112 -0.96541,0.993112zm1.49639,-4.46902l-2.99278,0l0,-0.993112c0,-0.849114 0.67097,-1.539329 1.49639,-1.539329c0.82543,0 1.49639,0.690215 1.49639,1.539329l0,0.993112z"/>
  <path fill="#ff5656" stroke="null" id="svg_11" d="m18.896244,4.262046l-0.48271,0l0,-0.993112c0,-1.370499 -1.08126,-2.482786 -2.41353,-2.482786s-2.41353,1.112287 -2.41353,2.482786l0,0.993112l-0.4827,0c-0.53339,0 -0.96541,0.444425 -0.96541,0.993122l0,4.965572c0,0.548697 0.43202,0.993112 0.96541,0.993112l5.79247,0c0.53339,0 0.96541,-0.444415 0.96541,-0.993112l0,-4.965572c0,-0.548697 -0.43202,-0.993122 -0.96541,-0.993122zm-2.89624,4.46902c-0.53339,0 -0.96541,-0.444424 -0.96541,-0.993112s0.43202,-0.993122 0.96541,-0.993122s0.96541,0.444425 0.96541,0.993122s-0.43202,0.993112 -0.96541,0.993112zm1.49639,-4.46902l-2.99278,0l0,-0.993112c0,-0.849114 0.67097,-1.539329 1.49639,-1.539329c0.82543,0 1.49639,0.690215 1.49639,1.539329l0,0.993112z"/>
  <path fill="#999999" stroke="null" id="svg_12" d="m30.396235,4.262046l-0.48271,0l0,-0.993112c0,-1.370499 -1.08126,-2.482786 -2.41353,-2.482786s-2.41353,1.112287 -2.41353,2.482786l0,0.993112l-0.4827,0c-0.53339,0 -0.96541,0.444425 -0.96541,0.993122l0,4.965572c0,0.548697 0.43202,0.993112 0.96541,0.993112l5.79247,0c0.53339,0 0.96541,-0.444415 0.96541,-0.993112l0,-4.965572c0,-0.548697 -0.43202,-0.993122 -0.96541,-0.993122zm-2.89624,4.46902c-0.53339,0 -0.96541,-0.444424 -0.96541,-0.993112s0.43202,-0.993122 0.96541,-0.993122s0.96541,0.444425 0.96541,0.993122s-0.43202,0.993112 -0.96541,0.993112zm1.49639,-4.46902l-2.99278,0l0,-0.993112c0,-0.849114 0.67097,-1.539329 1.49639,-1.539329c0.82543,0 1.49639,0.690215 1.49639,1.539329l0,0.993112z"/>
  <path fill="#999999" stroke="null" id="svg_13" d="m42.040878,4.262046l-0.48271,0l0,-0.993112c0,-1.370499 -1.08126,-2.482786 -2.41353,-2.482786s-2.41353,1.112287 -2.41353,2.482786l0,0.993112l-0.4827,0c-0.53339,0 -0.96541,0.444425 -0.96541,0.993122l0,4.965572c0,0.548697 0.43202,0.993112 0.96541,0.993112l5.79247,0c0.53339,0 0.96541,-0.444415 0.96541,-0.993112l0,-4.965572c0,-0.548697 -0.43202,-0.993122 -0.96541,-0.993122zm-2.89624,4.46902c-0.53339,0 -0.96541,-0.444424 -0.96541,-0.993112s0.43202,-0.993122 0.96541,-0.993122s0.96541,0.444425 0.96541,0.993122s-0.43202,0.993112 -0.96541,0.993112zm1.49639,-4.46902l-2.99278,0l0,-0.993112c0,-0.849114 0.67097,-1.539329 1.49639,-1.539329c0.82543,0 1.49639,0.690215 1.49639,1.539329l0,0.993112z"/>
 </g>
</svg>