<svg width="24" height="24" xmlns="http://www.w3.org/2000/svg">
 <style type="text/css">.st0{opacity:0.2;fill:none;stroke:#000000;stroke-width:5.000000e-02;stroke-miterlimit:10;}</style>

 <g>
  <title>background</title>
  <rect fill="none" id="canvas_background" height="402" width="582" y="-1" x="-1"/>
 </g>
 <g>
  <title>Layer 1</title>
  <g id="grid_system"/>
  <g stroke="null" id="_icons">
   <path fill="#db2929" stroke="null" id="svg_1" d="m3.385714,20.464731c0.257143,0.252679 0.514286,0.379018 0.9,0.379018s0.642857,-0.126339 0.9,-0.379018l6.814285,-6.695982l6.814285,6.695982c0.257143,0.252679 0.642857,0.379018 0.9,0.379018s0.642857,-0.126339 0.9,-0.379018c0.514286,-0.505357 0.514286,-1.263393 0,-1.76875l-6.814285,-6.695982l6.814285,-6.695982c0.514286,-0.505357 0.514286,-1.263393 0,-1.76875s-1.285714,-0.505357 -1.8,0l-6.814285,6.695982l-6.814285,-6.695982c-0.514286,-0.505357 -1.285714,-0.505357 -1.8,0s-0.514286,1.263393 0,1.76875l6.814285,6.695982l-6.814285,6.695982c-0.514286,0.505357 -0.514286,1.263393 0,1.76875z"/>
  </g>
 </g>
</svg>