<svg width="66" height="12" xmlns="http://www.w3.org/2000/svg">

 <g>
  <title>background</title>
  <rect fill="none" id="canvas_background" height="14" width="68" y="-1" x="-1"/>
 </g>
 <g>
  <title>Layer 1</title>
  <g stroke="null" id="svg_1">
   <g stroke="null" id="svg_2">
    <path fill="#e0e014" stroke="null" id="svg_3" d="m4.466668,4.220164c0,0 -1.943683,0.219228 -3.240292,0.365798c-0.116867,0.014406 -0.220202,0.093955 -0.258953,0.214844s0,0.246788 0.086113,0.326337c0.96323,0.895077 2.410536,2.235501 2.410536,2.235501c-0.00123,0 -0.397348,1.949878 -0.660606,3.25084c-0.022143,0.117757 0.019683,0.242404 0.120558,0.316941c0.10026,0.074538 0.229428,0.07579 0.330918,0.017538c1.134225,-0.656432 2.833103,-1.643585 2.833103,-1.643585s1.699493,0.987153 2.831873,1.644211c0.103335,0.057626 0.232504,0.056373 0.332764,-0.018165c0.100875,-0.074538 0.142701,-0.199184 0.119942,-0.316315c-0.263258,-1.301589 -0.658761,-3.251467 -0.658761,-3.251467s1.447306,-1.340424 2.410536,-2.233622c0.086113,-0.082054 0.124248,-0.207954 0.086113,-0.328216s-0.141471,-0.199811 -0.258338,-0.213591c-1.296609,-0.147822 -3.240908,-0.367051 -3.240908,-0.367051s-0.805767,-1.815209 -1.342741,-3.025348c-0.050437,-0.108361 -0.156233,-0.184152 -0.280481,-0.184152s-0.230659,0.076417 -0.278636,0.184152c-0.537588,1.210139 -1.342741,3.025348 -1.342741,3.025348z"/>
   </g>
  </g>
  <g stroke="null" id="svg_6">
   <g stroke="null" id="svg_5">
    <path fill="#999999" stroke="null" id="svg_4" d="m17.162833,4.220164c0,0 -1.943683,0.219229 -3.240292,0.365798c-0.116867,0.014407 -0.220202,0.093955 -0.258953,0.214844s0,0.246788 0.086113,0.326337c0.96323,0.895077 2.410536,2.2355 2.410536,2.2355c-0.00123,0 -0.397348,1.949878 -0.660606,3.250841c-0.022144,0.117756 0.019683,0.242403 0.120557,0.316941c0.10026,0.074537 0.229429,0.07579 0.330919,0.017538c1.134225,-0.656432 2.833103,-1.643585 2.833103,-1.643585s1.699492,0.987153 2.831872,1.644212c0.103336,0.057625 0.232504,0.056372 0.332764,-0.018165c0.100875,-0.074538 0.142701,-0.199185 0.119942,-0.316315c-0.263258,-1.301589 -0.658761,-3.251467 -0.658761,-3.251467s1.447306,-1.340423 2.410537,-2.233621c0.086112,-0.082054 0.124248,-0.207954 0.086112,-0.328216s-0.14147,-0.199811 -0.258337,-0.213591c-1.296609,-0.147822 -3.240908,-0.367051 -3.240908,-0.367051s-0.805767,-1.815209 -1.342741,-3.025348c-0.050437,-0.108361 -0.156232,-0.184152 -0.28048,-0.184152s-0.230659,0.076417 -0.278636,0.184152c-0.537588,1.210139 -1.342741,3.025348 -1.342741,3.025348z"/>
   </g>
  </g>
  <g stroke="null" id="svg_9">
   <g stroke="null" id="svg_8">
    <path fill="#999999" stroke="null" id="svg_7" d="m44.662832,4.220164c0,0 -1.943683,0.219229 -3.240292,0.365798c-0.116867,0.014407 -0.220202,0.093955 -0.258953,0.214844s0,0.246788 0.086113,0.326337c0.96323,0.895077 2.410536,2.2355 2.410536,2.2355c-0.00123,0 -0.397348,1.949878 -0.660606,3.250841c-0.022144,0.117756 0.019683,0.242403 0.120557,0.316941c0.10026,0.074537 0.229429,0.07579 0.330919,0.017538c1.134225,-0.656432 2.833103,-1.643585 2.833103,-1.643585s1.699492,0.987153 2.831872,1.644212c0.103336,0.057625 0.232504,0.056372 0.332764,-0.018165c0.100875,-0.074538 0.142701,-0.199185 0.119942,-0.316315c-0.263258,-1.301589 -0.658761,-3.251467 -0.658761,-3.251467s1.447306,-1.340423 2.410537,-2.233621c0.086112,-0.082054 0.124248,-0.207954 0.086112,-0.328216s-0.14147,-0.199811 -0.258337,-0.213591c-1.296609,-0.147822 -3.240908,-0.367051 -3.240908,-0.367051s-0.805767,-1.815209 -1.342741,-3.025348c-0.050437,-0.108361 -0.156232,-0.184152 -0.28048,-0.184152s-0.230659,0.076417 -0.278636,0.184152c-0.537588,1.210139 -1.342741,3.025348 -1.342741,3.025348z"/>
   </g>
  </g>
  <g stroke="null" id="svg_12">
   <g stroke="null" id="svg_11">
    <path fill="#999999" stroke="null" id="svg_10" d="m31.377834,4.220164c0,0 -1.943683,0.219229 -3.240292,0.365798c-0.116867,0.014407 -0.220202,0.093955 -0.258953,0.214844s0,0.246788 0.086113,0.326337c0.96323,0.895077 2.410536,2.2355 2.410536,2.2355c-0.00123,0 -0.397348,1.949878 -0.660606,3.250841c-0.022144,0.117756 0.019683,0.242403 0.120557,0.316941c0.10026,0.074537 0.229429,0.07579 0.330919,0.017538c1.134225,-0.656432 2.833103,-1.643585 2.833103,-1.643585s1.699492,0.987153 2.831872,1.644212c0.103336,0.057625 0.232504,0.056372 0.332764,-0.018165c0.100875,-0.074538 0.142701,-0.199185 0.119942,-0.316315c-0.263258,-1.301589 -0.658761,-3.251467 -0.658761,-3.251467s1.447306,-1.340423 2.410537,-2.233621c0.086112,-0.082054 0.124248,-0.207954 0.086112,-0.328216s-0.14147,-0.199811 -0.258337,-0.213591c-1.296609,-0.147822 -3.240908,-0.367051 -3.240908,-0.367051s-0.805767,-1.815209 -1.342741,-3.025348c-0.050437,-0.108361 -0.156232,-0.184152 -0.28048,-0.184152s-0.230659,0.076417 -0.278636,0.184152c-0.537588,1.210139 -1.342741,3.025348 -1.342741,3.025348z"/>
   </g>
  </g>
  <g stroke="null" id="svg_15">
   <g stroke="null" id="svg_14">
    <path fill="#999999" stroke="null" id="svg_13" d="m58.288997,4.220164c0,0 -1.943683,0.219229 -3.240292,0.365798c-0.116867,0.014407 -0.220202,0.093955 -0.258953,0.214844s0,0.246788 0.086113,0.326337c0.96323,0.895077 2.410536,2.2355 2.410536,2.2355c-0.00123,0 -0.397348,1.949878 -0.660606,3.250841c-0.022144,0.117756 0.019683,0.242403 0.120557,0.316941c0.10026,0.074537 0.229429,0.07579 0.330919,0.017538c1.134225,-0.656432 2.833103,-1.643585 2.833103,-1.643585s1.699492,0.987153 2.831872,1.644212c0.103336,0.057625 0.232504,0.056372 0.332764,-0.018165c0.100875,-0.074538 0.142701,-0.199185 0.119942,-0.316315c-0.263258,-1.301589 -0.658761,-3.251467 -0.658761,-3.251467s1.447306,-1.340423 2.410537,-2.233621c0.086112,-0.082054 0.124248,-0.207954 0.086112,-0.328216s-0.14147,-0.199811 -0.258337,-0.213591c-1.296609,-0.147822 -3.240908,-0.367051 -3.240908,-0.367051s-0.805767,-1.815209 -1.342741,-3.025348c-0.050437,-0.108361 -0.156232,-0.184152 -0.28048,-0.184152s-0.230659,0.076417 -0.278636,0.184152c-0.537588,1.210139 -1.342741,3.025348 -1.342741,3.025348z"/>
   </g>
  </g>
 </g>
</svg>